<svg xmlns="http://www.w3.org/2000/svg" width="482.334" height="201.119" viewBox="0 0 482.334 201.119"><g fill="#F7F7F7"><path d="M135.64 106.577c0-3.713.653-7.016 1.963-9.91 1.31-2.89 3.09-5.34 5.342-7.35s4.886-3.53 7.9-4.567c3.013-1.035 6.193-1.553 9.542-1.553 3.653 0 6.804.64 9.452 1.918 2.647 1.278 4.885 2.8 6.71 4.566l-3.744 4.84c-1.826-1.582-3.73-2.83-5.708-3.743-1.98-.914-4.125-1.37-6.438-1.37-2.557 0-4.9.41-7.032 1.233-2.132.822-3.943 1.995-5.434 3.516-1.492 1.52-2.664 3.333-3.516 5.434-.854 2.1-1.28 4.43-1.28 6.986 0 2.557.412 4.872 1.234 6.94.822 2.07 1.978 3.852 3.47 5.342 1.49 1.494 3.288 2.648 5.388 3.47 2.1.823 4.43 1.233 6.986 1.233 2.74 0 5.25-.53 7.534-1.597a28.255 28.255 0 0 0 6.256-3.973l3.288 4.84a27.586 27.586 0 0 1-8.173 5.113 24.99 24.99 0 0 1-9.45 1.826c-3.47 0-6.683-.52-9.636-1.553-2.954-1.034-5.525-2.542-7.717-4.52-2.192-1.98-3.897-4.415-5.114-7.308-1.216-2.887-1.823-6.16-1.823-9.813zM194.27 84.294h6.21l.638 6.393h.274c3.835-4.2 8.493-7.49 13.79-7.49 6.758 0 10.41 3.198 12.237 8.494 4.656-5.02 9.224-8.492 14.61-8.492 9.133 0 13.517 6.027 13.517 17.352v28.128h-7.49v-27.124c0-8.31-2.646-11.872-8.218-11.872-3.47 0-7.033 2.283-11.143 6.85v32.145h-7.488v-27.123c0-8.31-2.65-11.872-8.312-11.872-3.288 0-7.032 2.283-11.142 6.85v32.145h-7.488V84.294zM267.967 106.577c0-3.592.562-6.833 1.69-9.726 1.124-2.89 2.617-5.34 4.474-7.35a19.658 19.658 0 0 1 6.44-4.658c2.435-1.096 4.962-1.644 7.58-1.644 2.74 0 5.144.518 7.214 1.553 2.068 1.037 4.14 2.437 6.21 4.202l-.274-8.22V63.655h7.49v65.023h-6.21l-.64-5.845h-.275c-1.826 1.888-4.004 3.517-6.53 4.886-2.526 1.37-5.16 2.055-7.897 2.055-2.924 0-5.557-.518-7.9-1.55a16.98 16.98 0 0 1-6.07-4.522c-1.705-1.978-3.015-4.397-3.93-7.26-.915-2.86-1.37-6.15-1.37-9.863zm7.762-.092c0 5.357 1.142 9.53 3.425 12.512s5.492 4.475 9.635 4.475c4.383 0 8.553-2.222 12.51-6.666v-22.1c-2.008-1.887-3.973-3.227-5.89-4.02-1.917-.79-3.85-1.187-5.8-1.187s-3.76.41-5.435 1.232c-1.674.822-3.137 1.98-4.383 3.47-1.248 1.493-2.237 3.274-2.97 5.343-.728 2.07-1.093 4.383-1.093 6.94zM321.756 106.577c0-3.653.64-6.925 1.917-9.817 1.28-2.89 2.97-5.342 5.07-7.352a21.98 21.98 0 0 1 7.213-4.612 22.667 22.667 0 0 1 8.355-1.598c3.166 0 5.997.502 8.494 1.507 2.496 1.005 4.612 2.42 6.348 4.247 1.734 1.827 3.06 4.02 3.973 6.575.913 2.557 1.37 5.388 1.37 8.494 0 .792-.017 1.568-.046 2.33-.032.76-.107 1.415-.23 1.962h-34.703c.062 2.375.532 4.506 1.416 6.394.882 1.888 2.07 3.502 3.563 4.84 1.49 1.34 3.256 2.375 5.297 3.104 2.04.73 4.276 1.097 6.712 1.097 2.617 0 5.008-.365 7.17-1.097 2.16-.73 4.276-1.734 6.347-3.014l2.648 4.932c-2.192 1.4-4.688 2.62-7.49 3.654-2.8 1.034-5.996 1.55-9.588 1.55-3.287 0-6.378-.532-9.27-1.597-2.893-1.064-5.42-2.587-7.58-4.566-2.16-1.98-3.866-4.398-5.113-7.26-1.25-2.863-1.874-6.12-1.874-9.773zm35.8-3.653c0-4.443-1.157-7.854-3.472-10.23-2.314-2.373-5.54-3.56-9.68-3.56-1.827 0-3.578.305-5.252.913a13.914 13.914 0 0 0-4.52 2.694c-1.34 1.188-2.467 2.635-3.38 4.34-.913 1.704-1.52 3.652-1.826 5.844h28.13zM379.928 84.294h6.21l.64 10.502h.274c2.313-3.59 5.16-6.422 8.538-8.493 3.38-2.07 7.138-3.104 11.28-3.104 1.643 0 3.163.136 4.563.41s2.8.746 4.2 1.416L413.9 91.51c-1.584-.548-2.908-.943-3.974-1.187-1.064-.243-2.48-.365-4.246-.365-3.35 0-6.562.958-9.635 2.876-3.075 1.918-5.952 5.19-8.63 9.816v26.027h-7.49l.003-44.383z"/></g><path fill="#F7F7F7" d="M475.334 7v187.12H7V7h468.334m7-7H0v201.12h482.334V0z"/><path fill="#333" d="M95.927 72.75l20.897 55.928h-7.897l-13.04-34.656-16.037 34.656h-7.17l19.885-43.496-2.997-8.02c-1.27-3.428-3.983-5.128-8.14-5.102h-1.985v-6.4l2.835.082c7.398.19 11.948 2.526 13.65 7.007z"/></svg>
